<?xml version="1.0" encoding="utf-8"?>
<!-- Generator: Adobe Illustrator 15.1.0, SVG Export Plug-In . SVG Version: 6.00 Build 0)  -->
<!DOCTYPE svg PUBLIC "-//W3C//DTD SVG 1.1//EN" "http://www.w3.org/Graphics/SVG/1.1/DTD/svg11.dtd">
<svg version="1.1" id="Ebene_1" xmlns="http://www.w3.org/2000/svg" xmlns:xlink="http://www.w3.org/1999/xlink" x="0px" y="0px"
	 width="32px" height="32px" viewBox="0 0 32 32" enable-background="new 0 0 32 32" xml:space="preserve">
<g>
	<g>
		<polygon fill="#666666" points="3.286,6.622 8.549,6.622 8.549,4.579 3.286,4.579 1.243,4.579 1.243,6.622 1.243,11.917 
			3.286,11.917 		"/>
		<polygon fill="#666666" points="28.816,4.579 23.521,4.579 23.521,6.623 28.816,6.623 28.816,11.885 30.859,11.885 30.859,6.623 
			30.859,4.579 		"/>
		<rect x="5.199" y="8.248" fill="#666666" width="21.531" height="16.498"/>
		<polygon fill="#666666" points="28.816,26.372 23.553,26.372 23.553,28.415 28.816,28.415 30.859,28.415 30.859,26.372 
			30.859,21.077 28.816,21.077 		"/>
		<polygon fill="#666666" points="3.286,21.107 1.243,21.107 1.243,26.372 1.243,28.415 3.286,28.415 8.581,28.415 8.581,26.372 
			3.286,26.372 		"/>
	</g>
</g>
</svg>
